# xmcd
#
# Track frame offsets: 
#        150
#        22911
#        38181
#        66540
#        84400
#        90468
#        110757
#        119670
#        140676
#        167460
#        188664
#
# Disc length: 2744 seconds
#
# Revision: 0
# Processed by: cddbd v1.5.2PL0 Copyright (c) Steve Scherf et al.
# Submitted via: ExactAudioCopy v0.95a5
#
DISCID=920ab60b
DTITLE=SONNY BLACK and The DUKES - Heart and Soul
DYEAR=2000
DGENRE=Blues
TTITLE0=Through Heaven's Eyes
TTITLE1=Checkin' In
TTITLE2=Blues Walkin' By My Side
TTITLE3=If I Ever Get To Heaven
TTITLE4=Raggin' the Strings
TTITLE5=Grant's Groove
TTITLE6=Rockin' With Bill
TTITLE7=Would I Be Right
TTITLE8=Blues Is King
TTITLE9=Bluesology
TTITLE10=Kelly's Blues
EXTD=
EXTT0=
EXTT1=
EXTT2=
EXTT3=
EXTT4=
EXTT5=
EXTT6=
EXTT7=
EXTT8=
EXTT9=
EXTT10=
PLAYORDER=
